<mxfile host="app.diagrams.net" modified="2021-08-05T15:38:01.215Z" agent="5.0 (Windows NT 10.0; Win64; x64) AppleWebKit/537.36 (KHTML, like Gecko) Chrome/92.0.4515.107 Safari/537.36" etag="GeTH8zomItvpcV3vtEc8" version="14.9.3" type="github">
  <diagram id="wFE0QG_FPsp0jaGvCLVb" name="Page-1">
    <mxGraphModel dx="1779" dy="633" grid="1" gridSize="10" guides="1" tooltips="1" connect="1" arrows="1" fold="1" page="1" pageScale="1" pageWidth="850" pageHeight="1100" math="0" shadow="0">
      <root>
        <mxCell id="0" />
        <mxCell id="1" parent="0" />
        <mxCell id="p6YkToFKb5sHR4yI7PBi-1" value="1" style="edgeStyle=orthogonalEdgeStyle;rounded=0;orthogonalLoop=1;jettySize=auto;html=1;entryX=0;entryY=0.5;entryDx=0;entryDy=0;" parent="1" source="p6YkToFKb5sHR4yI7PBi-2" target="p6YkToFKb5sHR4yI7PBi-4" edge="1">
          <mxGeometry relative="1" as="geometry">
            <mxPoint x="111.25" y="115" as="targetPoint" />
          </mxGeometry>
        </mxCell>
        <mxCell id="p6YkToFKb5sHR4yI7PBi-2" value="" style="verticalLabelPosition=bottom;html=1;verticalAlign=top;align=center;strokeColor=none;fillColor=#00BEF2;shape=mxgraph.azure.user;" parent="1" vertex="1">
          <mxGeometry x="20" y="90" width="47.5" height="50" as="geometry" />
        </mxCell>
        <mxCell id="a1Xnr3Te8Z1X3lZT-bas-1" value="2" style="edgeStyle=orthogonalEdgeStyle;rounded=0;orthogonalLoop=1;jettySize=auto;html=1;exitX=0.5;exitY=1;exitDx=0;exitDy=0;entryX=0.5;entryY=0;entryDx=0;entryDy=0;" edge="1" parent="1" source="p6YkToFKb5sHR4yI7PBi-4" target="p6YkToFKb5sHR4yI7PBi-9">
          <mxGeometry relative="1" as="geometry">
            <mxPoint x="180" y="250" as="targetPoint" />
          </mxGeometry>
        </mxCell>
        <mxCell id="p6YkToFKb5sHR4yI7PBi-4" value="ARM" style="rounded=0;whiteSpace=wrap;html=1;" parent="1" vertex="1">
          <mxGeometry x="135" y="85" width="120" height="60" as="geometry" />
        </mxCell>
        <mxCell id="p6YkToFKb5sHR4yI7PBi-49" style="edgeStyle=orthogonalEdgeStyle;rounded=0;orthogonalLoop=1;jettySize=auto;html=1;exitX=1;exitY=0.5;exitDx=0;exitDy=0;" parent="1" source="p6YkToFKb5sHR4yI7PBi-9" target="p6YkToFKb5sHR4yI7PBi-12" edge="1">
          <mxGeometry relative="1" as="geometry" />
        </mxCell>
        <mxCell id="a1Xnr3Te8Z1X3lZT-bas-2" value="3" style="edgeStyle=orthogonalEdgeStyle;rounded=0;orthogonalLoop=1;jettySize=auto;html=1;exitX=0.5;exitY=1;exitDx=0;exitDy=0;entryX=0.5;entryY=0;entryDx=0;entryDy=0;" edge="1" parent="1" source="p6YkToFKb5sHR4yI7PBi-9" target="p6YkToFKb5sHR4yI7PBi-10">
          <mxGeometry relative="1" as="geometry" />
        </mxCell>
        <mxCell id="p6YkToFKb5sHR4yI7PBi-9" value="Connect Service Extension RP" style="rounded=0;whiteSpace=wrap;html=1;fillColor=#dae8fc;strokeColor=#6c8ebf;" parent="1" vertex="1">
          <mxGeometry x="110" y="307" width="170" height="60" as="geometry" />
        </mxCell>
        <mxCell id="p6YkToFKb5sHR4yI7PBi-10" value="Guest Notification Service" style="rounded=0;whiteSpace=wrap;html=1;" parent="1" vertex="1">
          <mxGeometry x="110" y="505" width="170" height="60" as="geometry" />
        </mxCell>
        <mxCell id="p6YkToFKb5sHR4yI7PBi-11" value="Hybrid Connection Details" style="text;html=1;strokeColor=none;fillColor=none;align=center;verticalAlign=middle;whiteSpace=wrap;rounded=0;" parent="1" vertex="1">
          <mxGeometry x="30" y="427" width="160" height="20" as="geometry" />
        </mxCell>
        <mxCell id="p6YkToFKb5sHR4yI7PBi-12" value="" style="aspect=fixed;perimeter=ellipsePerimeter;html=1;align=center;shadow=0;dashed=0;spacingTop=3;image;image=img/lib/active_directory/database.svg;" parent="1" vertex="1">
          <mxGeometry x="300" y="378.5" width="50" height="37" as="geometry" />
        </mxCell>
        <mxCell id="p6YkToFKb5sHR4yI7PBi-13" value="List User Credential Call" style="text;html=1;strokeColor=none;fillColor=none;align=center;verticalAlign=middle;whiteSpace=wrap;rounded=0;" parent="1" vertex="1">
          <mxGeometry x="-10" y="150" width="170" height="20" as="geometry" />
        </mxCell>
        <mxCell id="p6YkToFKb5sHR4yI7PBi-14" value="Portal Browse&amp;nbsp;" style="text;html=1;strokeColor=none;fillColor=none;align=center;verticalAlign=middle;whiteSpace=wrap;rounded=0;" parent="1" vertex="1">
          <mxGeometry x="470" y="170" width="240" height="20" as="geometry" />
        </mxCell>
        <mxCell id="p6YkToFKb5sHR4yI7PBi-43" value="3&#39;" style="edgeStyle=orthogonalEdgeStyle;rounded=0;orthogonalLoop=1;jettySize=auto;html=1;" parent="1" source="p6YkToFKb5sHR4yI7PBi-15" target="p6YkToFKb5sHR4yI7PBi-28" edge="1">
          <mxGeometry relative="1" as="geometry" />
        </mxCell>
        <mxCell id="a1Xnr3Te8Z1X3lZT-bas-4" value="2&#39;" style="edgeStyle=orthogonalEdgeStyle;rounded=0;orthogonalLoop=1;jettySize=auto;html=1;" edge="1" parent="1" source="p6YkToFKb5sHR4yI7PBi-15">
          <mxGeometry relative="1" as="geometry">
            <mxPoint x="260" y="300" as="targetPoint" />
          </mxGeometry>
        </mxCell>
        <mxCell id="p6YkToFKb5sHR4yI7PBi-15" value="" style="aspect=fixed;html=1;points=[];align=center;image;fontSize=12;image=img/lib/azure2/general/Management_Portal.svg;" parent="1" vertex="1">
          <mxGeometry x="360" y="85" width="110" height="88" as="geometry" />
        </mxCell>
        <mxCell id="p6YkToFKb5sHR4yI7PBi-16" value="1&#39;" style="edgeStyle=orthogonalEdgeStyle;rounded=0;orthogonalLoop=1;jettySize=auto;html=1;" parent="1" source="p6YkToFKb5sHR4yI7PBi-17" target="p6YkToFKb5sHR4yI7PBi-15" edge="1">
          <mxGeometry relative="1" as="geometry" />
        </mxCell>
        <mxCell id="p6YkToFKb5sHR4yI7PBi-17" value="" style="verticalLabelPosition=bottom;html=1;verticalAlign=top;align=center;strokeColor=none;fillColor=#00BEF2;shape=mxgraph.azure.user;" parent="1" vertex="1">
          <mxGeometry x="560" y="104" width="50" height="50" as="geometry" />
        </mxCell>
        <mxCell id="p6YkToFKb5sHR4yI7PBi-19" value="List User Credential Call" style="text;html=1;strokeColor=none;fillColor=none;align=center;verticalAlign=middle;whiteSpace=wrap;rounded=0;" parent="1" vertex="1">
          <mxGeometry x="190" y="190" width="170" height="20" as="geometry" />
        </mxCell>
        <mxCell id="p6YkToFKb5sHR4yI7PBi-20" value="Azure Portal" style="text;html=1;strokeColor=none;fillColor=none;align=center;verticalAlign=middle;whiteSpace=wrap;rounded=0;" parent="1" vertex="1">
          <mxGeometry x="372.5" y="60" width="85" height="20" as="geometry" />
        </mxCell>
        <mxCell id="p6YkToFKb5sHR4yI7PBi-27" value="5&#39;" style="edgeStyle=orthogonalEdgeStyle;rounded=0;orthogonalLoop=1;jettySize=auto;html=1;exitX=0.5;exitY=1;exitDx=0;exitDy=0;entryX=0.5;entryY=0;entryDx=0;entryDy=0;entryPerimeter=0;" parent="1" source="p6YkToFKb5sHR4yI7PBi-28" target="p6YkToFKb5sHR4yI7PBi-31" edge="1">
          <mxGeometry relative="1" as="geometry" />
        </mxCell>
        <mxCell id="p6YkToFKb5sHR4yI7PBi-48" value="4&#39;" style="edgeStyle=orthogonalEdgeStyle;rounded=0;orthogonalLoop=1;jettySize=auto;html=1;exitX=0;exitY=0.5;exitDx=0;exitDy=0;" parent="1" source="p6YkToFKb5sHR4yI7PBi-28" edge="1">
          <mxGeometry relative="1" as="geometry">
            <mxPoint x="330" y="380" as="targetPoint" />
          </mxGeometry>
        </mxCell>
        <mxCell id="p6YkToFKb5sHR4yI7PBi-28" value="Connect Service Extension RP DP&lt;br&gt;&amp;nbsp;(Hosted Proxy)" style="rounded=0;whiteSpace=wrap;html=1;fillColor=#dae8fc;strokeColor=#6c8ebf;" parent="1" vertex="1">
          <mxGeometry x="372.5" y="250" width="237.5" height="45" as="geometry" />
        </mxCell>
        <mxCell id="p6YkToFKb5sHR4yI7PBi-30" value="6&#39;" style="edgeStyle=orthogonalEdgeStyle;rounded=0;orthogonalLoop=1;jettySize=auto;html=1;exitX=0.5;exitY=1;exitDx=0;exitDy=0;exitPerimeter=0;" parent="1" source="p6YkToFKb5sHR4yI7PBi-31" target="p6YkToFKb5sHR4yI7PBi-34" edge="1">
          <mxGeometry relative="1" as="geometry">
            <mxPoint x="488" y="520" as="targetPoint" />
          </mxGeometry>
        </mxCell>
        <mxCell id="p6YkToFKb5sHR4yI7PBi-31" value="" style="verticalLabelPosition=bottom;verticalAlign=top;html=1;shape=mxgraph.infographic.cylinder;fillColor=#10739E;strokeColor=none;" parent="1" vertex="1">
          <mxGeometry x="457.5" y="367" width="60" height="100" as="geometry" />
        </mxCell>
        <mxCell id="p6YkToFKb5sHR4yI7PBi-32" value="Hybrid Connections" style="text;html=1;strokeColor=none;fillColor=none;align=center;verticalAlign=middle;whiteSpace=wrap;rounded=0;" parent="1" vertex="1">
          <mxGeometry x="490" y="407" width="170" height="20" as="geometry" />
        </mxCell>
        <mxCell id="p6YkToFKb5sHR4yI7PBi-33" value="7&#39;" style="edgeStyle=orthogonalEdgeStyle;rounded=0;orthogonalLoop=1;jettySize=auto;html=1;" parent="1" source="p6YkToFKb5sHR4yI7PBi-34" target="p6YkToFKb5sHR4yI7PBi-36" edge="1">
          <mxGeometry relative="1" as="geometry" />
        </mxCell>
        <mxCell id="p6YkToFKb5sHR4yI7PBi-34" value="Connect Agent" style="rounded=0;whiteSpace=wrap;html=1;" parent="1" vertex="1">
          <mxGeometry x="427.5" y="530" width="120" height="60" as="geometry" />
        </mxCell>
        <mxCell id="p6YkToFKb5sHR4yI7PBi-35" value="8&#39;" style="edgeStyle=orthogonalEdgeStyle;rounded=0;orthogonalLoop=1;jettySize=auto;html=1;" parent="1" source="p6YkToFKb5sHR4yI7PBi-36" target="p6YkToFKb5sHR4yI7PBi-37" edge="1">
          <mxGeometry relative="1" as="geometry" />
        </mxCell>
        <mxCell id="p6YkToFKb5sHR4yI7PBi-36" value="Kube-aad-proxy" style="rounded=0;whiteSpace=wrap;html=1;" parent="1" vertex="1">
          <mxGeometry x="628" y="490" width="120" height="60" as="geometry" />
        </mxCell>
        <mxCell id="p6YkToFKb5sHR4yI7PBi-37" value="API server" style="rounded=0;whiteSpace=wrap;html=1;" parent="1" vertex="1">
          <mxGeometry x="628" y="630" width="120" height="60" as="geometry" />
        </mxCell>
        <mxCell id="p6YkToFKb5sHR4yI7PBi-54" value="" style="endArrow=classic;startArrow=classic;html=1;exitX=1;exitY=0.5;exitDx=0;exitDy=0;" parent="1" source="p6YkToFKb5sHR4yI7PBi-10" edge="1">
          <mxGeometry width="50" height="50" relative="1" as="geometry">
            <mxPoint x="260" y="370" as="sourcePoint" />
            <mxPoint x="410" y="320" as="targetPoint" />
            <Array as="points" />
          </mxGeometry>
        </mxCell>
      </root>
    </mxGraphModel>
  </diagram>
</mxfile>
